<?xml version="1.0" standalone="no"?>
<!DOCTYPE svg PUBLIC "-//W3C//DTD SVG 20010904//EN"
 "http://www.w3.org/TR/2001/REC-SVG-20010904/DTD/svg10.dtd">
<svg version="1.0" xmlns="http://www.w3.org/2000/svg"
 width="500.000000pt" height="500.000000pt" viewBox="0 0 500.000000 500.000000"
 preserveAspectRatio="xMidYMid meet">
<metadata>
Created by potrace 1.11, written by Peter Selinger 2001-2013
</metadata>
<g transform="translate(0.000000,500.000000) scale(0.100000,-0.100000)"
fill="#000000" stroke="none">
<path d="M2461 4896 c-22 -31 -58 -80 -79 -108 -38 -52 -219 -309 -527 -748
-178 -255 -307 -430 -315 -430 -6 0 -66 86 -258 369 -209 309 -277 404 -289
408 -28 10 -438 -662 -556 -911 -141 -295 -226 -592 -245 -846 -7 -94 -8 -446
-2 -629 5 -153 55 -344 149 -566 205 -482 598 -890 1099 -1140 257 -128 515
-211 743 -239 128 -15 496 -19 604 -5 121 15 139 19 279 54 679 173 1257 627
1554 1221 101 203 170 418 193 604 19 152 15 662 -6 791 -2 13 -8 58 -14 99
-30 207 -112 442 -246 710 -34 69 -71 141 -82 160 -198 346 -427 704 -446 697
-14 -4 -60 -69 -280 -394 -222 -328 -261 -382 -272 -379 -14 4 -102 126 -540
751 -209 297 -389 551 -401 564 l-22 23 -41 -56z m110 -2433 c157 -135 433
-411 546 -546 147 -178 265 -373 324 -539 l23 -66 -19 -38 c-11 -21 -61 -79
-112 -129 -104 -104 -188 -154 -354 -211 -179 -61 -239 -69 -489 -68 -220 0
-228 1 -343 32 -265 71 -458 192 -564 350 -35 54 -36 57 -24 100 29 108 190
384 319 545 60 76 501 524 567 575 22 18 49 32 61 32 12 0 41 -17 65 -37z"/>
</g>
</svg>
