<?xml version="1.0" standalone="no"?>
<!DOCTYPE svg PUBLIC "-//W3C//DTD SVG 20010904//EN"
 "http://www.w3.org/TR/2001/REC-SVG-20010904/DTD/svg10.dtd">
<svg version="1.0" xmlns="http://www.w3.org/2000/svg"
 width="500.000000pt" height="500.000000pt" viewBox="0 0 500.000000 500.000000"
 preserveAspectRatio="xMidYMid meet">
<metadata>
Created by potrace 1.11, written by Peter Selinger 2001-2013
</metadata>
<g transform="translate(0.000000,500.000000) scale(0.100000,-0.100000)"
fill="#000000" stroke="none">
<path d="M2454 4904 c-28 -38 -243 -345 -478 -681 -236 -337 -432 -613 -435
-613 -3 1 -127 183 -275 405 -148 222 -273 402 -277 399 -11 -6 -324 -499
-391 -614 -220 -379 -352 -713 -399 -1010 -11 -73 -27 -302 -35 -522 -18 -462
144 -934 459 -1338 69 -88 234 -257 329 -337 288 -241 727 -452 1100 -528 428
-87 898 -42 1323 127 777 309 1325 963 1451 1733 33 200 16 716 -30 937 -61
290 -175 574 -356 888 -81 141 -391 632 -414 658 -10 10 -68 -71 -282 -392
-148 -223 -272 -406 -275 -406 -4 0 -214 296 -468 658 -253 361 -469 668 -479
681 l-19 23 -49 -68z m171 -2490 c189 -166 444 -430 542 -561 138 -184 214
-319 268 -475 l24 -67 -22 -41 c-79 -148 -248 -269 -481 -345 -163 -53 -219
-60 -456 -60 -235 0 -291 8 -464 66 -219 73 -409 214 -468 346 -18 41 -18 42
5 105 54 143 133 279 266 458 119 160 628 670 669 670 4 0 57 -43 117 -96z"/>
</g>
</svg>
