<?xml version="1.0" standalone="no"?>
<!DOCTYPE svg PUBLIC "-//W3C//DTD SVG 20010904//EN"
 "http://www.w3.org/TR/2001/REC-SVG-20010904/DTD/svg10.dtd">
<svg version="1.0" xmlns="http://www.w3.org/2000/svg"
 width="500.000000pt" height="500.000000pt" viewBox="0 0 500.000000 500.000000"
 preserveAspectRatio="xMidYMid meet">
<metadata>
Created by potrace 1.11, written by Peter Selinger 2001-2013
</metadata>
<g transform="translate(0.000000,500.000000) scale(0.100000,-0.100000)"
fill="#000000" stroke="none">
<path d="M1760 4647 c0 -3 7 -12 15 -20 15 -16 155 -222 155 -230 0 -2 18 -36
39 -76 70 -127 136 -329 157 -481 10 -68 11 -292 2 -373 -14 -136 -62 -337
-79 -337 -4 0 -6 78 -3 173 5 211 -11 276 -94 385 l-27 36 -6 -110 c-13 -224
-89 -370 -335 -641 -311 -342 -360 -400 -421 -504 -74 -126 -135 -265 -158
-359 -2 -8 -11 -42 -19 -75 -9 -32 -19 -80 -24 -105 -15 -93 -6 -430 13 -460
2 -3 6 -24 10 -47 3 -23 19 -84 36 -135 70 -219 190 -401 374 -567 64 -58 196
-154 202 -147 3 2 -7 26 -20 53 -53 106 -70 172 -73 294 -3 115 4 176 21 172
5 -1 21 -43 37 -93 52 -171 133 -329 214 -419 96 -107 280 -204 429 -228 17
-3 50 -8 75 -13 58 -11 352 -10 421 1 30 5 69 11 86 14 237 37 500 158 682
314 98 84 128 115 231 237 51 61 139 203 183 294 53 112 79 187 115 329 26
100 27 118 27 341 -1 222 -2 241 -28 343 -30 119 -89 276 -142 377 l-34 65 -1
-45 c-2 -66 -6 -110 -14 -160 -11 -73 -78 -303 -93 -325 -13 -18 -14 -12 -8
55 4 41 9 84 12 95 5 24 5 384 -1 440 -8 83 -36 226 -67 348 -83 321 -264 648
-488 882 -259 270 -454 408 -776 550 -67 30 -242 85 -313 100 -9 2 -62 13
-117 25 -110 23 -195 35 -195 27z"/>
</g>
</svg>
